<svg width="160" height="55" viewBox="0 0 160 55" fill="none" xmlns="http://www.w3.org/2000/svg">
<g clip-path="url(#clip0_83_576)">
<path d="M38.7036 22.0432H20.5375V27.4339H33.4236C32.7836 34.9908 26.4944 38.2155 20.5621 38.2155C16.743 38.2155 13.0803 36.6983 10.3797 33.9978C7.67922 31.2973 6.16208 27.6346 6.16208 23.8155C6.16208 19.9963 7.67922 16.3336 10.3797 13.6331C13.0803 10.9326 16.743 9.41546 20.5621 9.41546C24.182 9.40984 27.663 10.8084 30.2728 13.317L34.0513 9.40315C30.4017 5.87468 25.5025 3.93626 20.4267 4.01238C17.8261 4.03097 15.2547 4.5616 12.8592 5.57397C10.4637 6.58634 8.291 8.06063 6.46526 9.91266C4.63952 11.7647 3.19644 13.9582 2.21841 16.3679C1.24038 18.7777 0.746567 21.3564 0.765154 23.957C0.783741 26.5576 1.31437 29.129 2.32674 31.5245C3.33911 33.92 4.8134 36.0927 6.66542 37.9184C8.51745 39.7442 10.711 41.1873 13.1207 42.1653C15.5304 43.1433 18.1092 43.6371 20.7098 43.6185C31.3067 43.6185 39.0728 36.357 39.0728 25.6124C39.0948 24.414 38.9833 23.2169 38.7405 22.0432H38.7036Z" fill="#4885ED"/>
<path d="M53.585 18.1416C51.0723 18.1513 48.6186 18.9047 46.5334 20.3068C44.4481 21.7089 42.8246 23.697 41.8675 26.0203C40.9104 28.3437 40.6625 30.8984 41.1551 33.3625C41.6478 35.8265 42.8588 38.0896 44.6356 39.8664C46.4124 41.6432 48.6755 42.8542 51.1395 43.3469C53.6036 43.8395 56.1583 43.5916 58.4817 42.6345C60.805 41.6774 62.7931 40.0539 64.1952 37.9686C65.5973 35.8834 66.3507 33.4297 66.3604 30.917C66.387 29.2319 66.0747 27.5587 65.4421 25.9967C64.8095 24.4348 63.8695 23.0158 62.6778 21.8242C61.4862 20.6325 60.0672 19.6925 58.5053 19.0599C56.9433 18.4273 55.2701 18.115 53.585 18.1416ZM53.6589 23.1385C55.2077 23.0472 56.7483 23.4235 58.0807 24.2184C59.4131 25.0134 60.4759 26.1904 61.1313 27.5967C61.7866 29.003 62.0043 30.5738 61.756 32.1054C61.5077 33.6369 60.805 35.0586 59.7389 36.1859C58.6729 37.3131 57.2927 38.0941 55.7774 38.4274C54.2621 38.7607 52.6815 38.631 51.2408 38.0552C49.8001 37.4793 48.5657 36.4838 47.6977 35.1978C46.8296 33.9118 46.368 32.3946 46.3727 30.8431C46.3211 29.8529 46.471 28.8626 46.8135 27.932C47.156 27.0015 47.6839 26.1503 48.3652 25.4298C49.0465 24.7094 49.867 24.1349 50.7769 23.741C51.6869 23.3471 52.6673 23.1422 53.6589 23.1385Z" fill="#DB3236"/>
<path d="M81.4245 18.1415C78.9112 18.1489 76.4563 18.9002 74.3694 20.3008C72.2826 21.7015 70.6572 23.6887 69.6982 26.0118C68.7392 28.335 68.4896 30.8901 68.9808 33.355C69.472 35.8198 70.6821 38.084 72.4584 39.8621C74.2348 41.6401 76.4978 42.8524 78.9622 43.346C81.4265 43.8396 83.9819 43.5924 86.306 42.6357C88.6301 41.6789 90.6188 40.0554 92.0215 37.9699C93.4241 35.8844 94.1778 33.4302 94.1876 30.9169C94.2141 29.233 93.9022 27.5608 93.2704 25.9996C92.6385 24.4385 91.6996 23.0201 90.5093 21.8286C89.3189 20.6371 87.9015 19.6968 86.3409 19.0635C84.7803 18.4301 83.1085 18.1166 81.4245 18.1415ZM81.4983 23.1385C83.0472 23.0472 84.5877 23.4235 85.9201 24.2184C87.2526 25.0134 88.3154 26.1903 88.9707 27.5967C89.6261 29.003 89.8437 30.5738 89.5955 32.1054C89.3472 33.6369 88.6445 35.0585 87.5784 36.1858C86.5123 37.3131 85.1321 38.0941 83.6168 38.4274C82.1015 38.7607 80.521 38.631 79.0803 38.0551C77.6396 37.4793 76.4052 36.4838 75.5371 35.1978C74.6691 33.9118 74.2075 32.3946 74.2122 30.8431C74.1605 29.8529 74.3105 28.8625 74.653 27.932C74.9955 27.0015 75.5234 26.1502 76.2046 25.4298C76.8859 24.7094 77.7064 24.1348 78.6164 23.741C79.5263 23.3471 80.5068 23.1421 81.4983 23.1385Z" fill="#F4C20D"/>
<path d="M108.708 18.1539C101.865 18.1539 96.4868 24.1477 96.4868 30.8677C96.4364 34.1516 97.6748 37.3245 99.9366 39.7059C102.198 42.0872 105.303 43.4874 108.585 43.6062C109.91 43.6783 111.232 43.4361 112.445 42.8992C113.658 42.3622 114.727 41.5459 115.564 40.517V42.9785C115.564 47.3723 112.893 49.9939 108.868 49.9939C107.465 49.9823 106.097 49.5521 104.939 48.7584C103.781 47.9646 102.887 46.8435 102.37 45.5385L97.4468 47.5816C98.399 49.8233 99.9949 51.7321 102.032 53.0663C104.07 54.4006 106.458 55.1003 108.893 55.077C115.699 55.077 120.881 50.7939 120.881 41.8093V18.917H115.576V21.0708C114.706 20.1223 113.643 19.3711 112.458 18.868C111.274 18.3648 109.995 18.1213 108.708 18.1539ZM109.201 23.1385C112.561 23.1385 115.995 26.0062 115.995 30.8923C115.995 35.7785 112.561 38.6093 109.127 38.6093C108.156 38.5846 107.2 38.3647 106.315 37.9626C105.431 37.5606 104.637 36.9846 103.98 36.2691C103.323 35.5536 102.817 34.7132 102.492 33.7979C102.166 32.8826 102.029 31.9112 102.087 30.9416C102.087 26.0185 105.607 23.1385 109.201 23.1385Z" fill="#4885ED"/>
<path d="M144.651 18.1169C138.201 18.1169 132.774 23.2492 132.774 30.8307C132.71 32.5016 132.987 34.1679 133.589 35.728C134.19 37.2881 135.104 38.7093 136.273 39.9048C137.442 41.1003 138.842 42.045 140.388 42.6814C141.934 43.3178 143.594 43.6324 145.266 43.6061C147.363 43.6102 149.429 43.1036 151.286 42.1301C153.143 41.1565 154.735 39.7453 155.924 38.0184L151.518 35.0892C150.88 36.1723 149.967 37.0674 148.871 37.6834C147.775 38.2994 146.535 38.6146 145.278 38.5969C143.972 38.6508 142.68 38.3128 141.568 37.6263C140.456 36.9397 139.575 35.9361 139.038 34.7446L156.109 27.6676L155.223 25.5877C154.409 23.4269 152.965 21.5605 151.078 20.2306C149.19 18.9006 146.947 18.1685 144.638 18.1292L144.651 18.1169ZM144.872 23.04C145.835 22.9984 146.79 23.2322 147.625 23.714C148.46 24.1957 149.14 24.9054 149.586 25.76L138.189 30.523C138.132 29.592 138.261 28.659 138.567 27.7778C138.873 26.8967 139.35 26.0848 139.971 25.3891C140.593 24.6934 141.346 24.1277 142.187 23.7245C143.028 23.3213 143.941 23.0886 144.872 23.04Z" fill="#DB3236"/>
<path d="M124.64 42.8553H130.252V5.32916H124.64V42.8553Z" fill="#3CBA54"/>
</g>
<defs>
<clipPath id="clip0_83_576">
<rect width="160" height="54.9744" fill="white"/>
</clipPath>
</defs>
</svg>
