<svg width="195" height="36" viewBox="0 0 195 36" fill="none" xmlns="http://www.w3.org/2000/svg">
<g clip-path="url(#clip0_82_719)">
<path d="M39.6953 36.025H75.6112V0.141418H39.6953V36.025Z" fill="#00B67A"/>
<path d="M39.6953 36.025H57.6532V0.141418H39.6953V36.025Z" fill="#00B67A"/>
<path d="M58.0826 24.4078L62.8532 23.3778L65.0597 30.3485L57.5783 24.7697L49.8051 30.3485L52.8221 21.1776L44.9238 15.5098H54.6863L57.702 6.33829L60.719 15.5098H70.4809L58.0826 24.4078Z" fill="white"/>
<path d="M0 36.025H35.9159V0.141418H0V36.025Z" fill="#00B67A"/>
<path d="M0 36.025H17.9579V0.141418H0V36.025Z" fill="#00B67A"/>
<path d="M18.3873 24.4078L23.1579 23.3778L25.3644 30.3485L17.883 24.7697L10.1098 30.3485L13.1268 21.1776L5.22852 15.5098H14.991L18.0067 6.33829L21.0237 15.5098H30.7856L18.3873 24.4078Z" fill="white"/>
<path d="M79.4121 36.025H115.328V0.141418H79.4121V36.025Z" fill="#00B67A"/>
<path d="M79.4121 36.025H97.37V0.141418H79.4121V36.025Z" fill="#00B67A"/>
<path d="M110.03 15.4084L89.6593 30.1934L92.6318 21.0557L84.8506 15.4084H94.4685L97.4405 6.27008L100.412 15.4084L110.03 15.4084ZM97.4412 24.5467L103.005 23.3775L105.221 30.1934L97.4412 24.5467Z" fill="white"/>
<path d="M119.13 36.025H155.046V0.141418H119.13V36.025Z" fill="#00B67A"/>
<path d="M119.13 36.025H137.088V0.141418H119.13V36.025Z" fill="#00B67A"/>
<path d="M149.746 15.4084L129.376 30.1934L132.348 21.0557L124.566 15.4084H134.184L137.156 6.27008L140.128 15.4084L149.746 15.4084ZM137.157 24.5467L142.72 23.3775L144.937 30.1934L137.157 24.5467Z" fill="white"/>
<path d="M158.82 36.025H194.736V0.141418H158.82V36.025Z" fill="#00B67A"/>
<path d="M158.82 36.025H176.778V0.141418H158.82V36.025Z" fill="#00B67A"/>
<path d="M189.437 15.4083L169.066 30.1934L172.038 21.0557L164.257 15.4083H173.875L176.847 6.27005L179.819 15.4083H189.437ZM176.847 24.5466L182.411 23.3774L184.627 30.1934L176.847 24.5466Z" fill="white"/>
</g>
<defs>
<clipPath id="clip0_82_719">
<rect width="194.4" height="35.628" fill="white" transform="translate(0 0.141418)"/>
</clipPath>
</defs>
</svg>
