<svg width="40" height="46" viewBox="0 0 40 46" fill="none" xmlns="http://www.w3.org/2000/svg">
<path fill-rule="evenodd" clip-rule="evenodd" d="M11.8203 9.7734C13.6915 8.17155 16.179 7.28711 19.3147 7.28711C22.4347 7.28711 24.9708 8.16236 26.9146 9.74055C28.8535 11.3148 30.1508 13.5459 30.875 16.1719C31.9182 19.9549 30.7183 23.8582 28.733 27.0575C28.4208 27.5606 28.132 28.0165 27.8891 28.3956C27.486 29.0249 27.2676 29.7503 27.2676 30.4889C27.2676 31.0925 27.0794 31.681 26.7294 32.1721L26.7047 32.2068C26.1373 33.0028 25.2213 33.4752 24.2453 33.4752H14.7952C13.8593 33.4752 12.97 33.0654 12.3609 32.3532L12.2722 32.2494C11.8314 31.734 11.5891 31.0776 11.5891 30.3988C11.5891 29.7116 11.3946 29.0353 11.0335 28.4412C10.7938 28.0467 10.5036 27.5639 10.1888 27.0285C8.30787 23.8292 7.19659 20.0032 8.1154 16.2644C8.76407 13.625 9.95608 11.3692 11.8203 9.7734ZM12.7058 10.8123C11.1145 12.1745 10.0397 14.1475 9.43919 16.5912C8.63547 19.8616 9.58791 23.3149 11.3635 26.3349C11.6742 26.8635 11.9609 27.3406 12.1979 27.7304C12.6847 28.5314 12.9524 29.4524 12.9524 30.3988C12.9524 30.7514 13.0783 31.0925 13.3073 31.3602L13.3961 31.464C13.7462 31.8733 14.2572 32.1089 14.7952 32.1089H24.2453C24.781 32.1089 25.2838 31.8496 25.5952 31.4126L25.62 31.3779C25.8049 31.1185 25.9043 30.8077 25.9043 30.4889C25.9043 29.4795 26.2026 28.4992 26.7418 27.6575C26.9818 27.2829 27.267 26.8326 27.5753 26.3359C29.4498 23.315 30.4647 19.8131 29.5609 16.5359C28.8947 14.12 27.7278 12.1593 26.0563 10.8022C24.3898 9.44904 22.1695 8.65345 19.3147 8.65345C16.4466 8.65345 14.29 9.4562 12.7058 10.8123Z" fill="#B8DFF0"/>
<path fill-rule="evenodd" clip-rule="evenodd" d="M23.0669 19.5865C22.1301 19.6302 21.3594 20.2545 21.3594 21.2951V32.3366C21.3594 32.714 21.0542 33.0198 20.6778 33.0198C20.3013 33.0198 19.9961 32.714 19.9961 32.3366V21.2951C19.9961 19.3754 21.4977 18.2918 23.0036 18.2216C24.5359 18.1502 26.1606 19.0976 26.5724 21.1611C26.7664 22.1332 26.6657 22.9362 26.337 23.5808C26.0106 24.2207 25.4971 24.6309 24.9958 24.8908C24.4982 25.1487 23.9888 25.2718 23.616 25.332C23.427 25.3626 23.2665 25.378 23.1511 25.3859C23.0932 25.3898 23.0462 25.3919 23.0121 25.3929C22.9951 25.3935 22.9812 25.3938 22.9708 25.3939L22.9577 25.3941L22.9532 25.3941L22.9514 25.3941L22.9507 25.3941C22.9503 25.3941 22.95 25.3941 22.95 24.711L22.95 25.3941C22.5735 25.3941 22.2683 25.0883 22.2683 24.711C22.2683 24.3344 22.5723 24.029 22.9478 24.0278C22.9483 24.0278 22.9489 24.0278 22.9494 24.0278L22.9489 24.0278L22.9482 24.0278L22.9501 24.0278C22.9534 24.0277 22.9599 24.0276 22.9693 24.0273C22.9881 24.0267 23.0185 24.0254 23.0587 24.0227C23.1394 24.0172 23.2577 24.006 23.3989 23.9831C23.6864 23.9366 24.0433 23.8462 24.3694 23.6772C24.6918 23.5101 24.9594 23.2798 25.123 22.959C25.2842 22.6429 25.3823 22.1649 25.2355 21.4291C24.9656 20.0767 23.9772 19.544 23.0669 19.5865Z" fill="#B8DFF0"/>
<path fill-rule="evenodd" clip-rule="evenodd" d="M16.1011 19.5865C17.0379 19.6302 17.8085 20.2545 17.8085 21.2951V32.5644C17.8085 32.9417 18.1137 33.2475 18.4902 33.2475C18.8667 33.2475 19.1719 32.9417 19.1719 32.5644V21.2951C19.1719 19.3754 17.6703 18.2918 16.1644 18.2216C14.6321 18.1502 13.0074 19.0976 12.5956 21.1611C12.4016 22.1332 12.5023 22.9362 12.831 23.5808C13.1573 24.2207 13.6708 24.6309 14.1722 24.8908C14.6698 25.1487 15.1792 25.2718 15.552 25.332C15.741 25.3626 15.9014 25.378 16.0169 25.3859C16.0748 25.3898 16.1218 25.3919 16.1559 25.3929C16.1729 25.3935 16.1868 25.3938 16.1972 25.3939L16.2102 25.3941L16.2148 25.3941L16.2165 25.3941L16.2173 25.3941C16.2176 25.3941 16.218 25.3941 16.218 24.711L16.218 25.3941C16.5944 25.3941 16.8996 25.0883 16.8996 24.711C16.8996 24.3344 16.5956 24.029 16.2202 24.0278C16.2196 24.0278 16.2191 24.0278 16.2185 24.0278L16.219 24.0278L16.2198 24.0278L16.2179 24.0278C16.2146 24.0277 16.2081 24.0276 16.1987 24.0273C16.1799 24.0267 16.1494 24.0254 16.1092 24.0227C16.0285 24.0172 15.9103 24.006 15.7691 23.9831C15.4815 23.9366 15.1246 23.8462 14.7985 23.6772C14.4762 23.5101 14.2086 23.2798 14.045 22.959C13.8838 22.6429 13.7856 22.1649 13.9325 21.4291C14.2023 20.0767 15.1908 19.544 16.1011 19.5865Z" fill="#B8DFF0"/>
<path fill-rule="evenodd" clip-rule="evenodd" d="M19.5413 0C19.9178 0 20.223 0.305865 20.223 0.683168V5.23762C20.223 5.61493 19.9178 5.92079 19.5413 5.92079C19.1649 5.92079 18.8597 5.61493 18.8597 5.23762V0.683168C18.8597 0.305865 19.1649 0 19.5413 0ZM9.63661 2.60879C9.95586 2.40882 10.3764 2.50609 10.576 2.82604L12.8482 6.4696C13.0477 6.78956 12.9507 7.21104 12.6314 7.41101C12.3122 7.61098 11.8916 7.51371 11.6921 7.19376L9.41984 3.5502C9.2203 3.23024 9.31736 2.80876 9.63661 2.60879ZM29.2189 2.60879C29.5381 2.80876 29.6352 3.23024 29.4356 3.5502L27.1634 7.19376C26.9638 7.51371 26.5433 7.61098 26.224 7.41101C25.9048 7.21104 25.8077 6.78956 26.0073 6.4696L28.2795 2.82604C28.479 2.50609 28.8996 2.40882 29.2189 2.60879ZM36.9598 9.47508C37.1345 9.80931 37.0058 10.2222 36.6723 10.3973L31.9006 12.9022C31.5671 13.0773 31.1551 12.9483 30.9804 12.614C30.8057 12.2798 30.9345 11.8669 31.268 11.6919L36.0397 9.18691C36.3732 9.01184 36.7851 9.14086 36.9598 9.47508ZM2.59121 9.44979C2.77984 9.12326 3.19688 9.0118 3.52269 9.20085L7.83997 11.7058C8.16578 11.8948 8.27699 12.3128 8.08836 12.6393C7.89973 12.9658 7.48269 13.0773 7.15688 12.8883L2.83961 10.3833C2.51379 10.1943 2.40258 9.77631 2.59121 9.44979ZM0 19.3564C0 18.9791 0.305196 18.6733 0.681675 18.6733H5.68062C6.0571 18.6733 6.3623 18.9791 6.3623 19.3564C6.3623 19.7337 6.0571 20.0396 5.68062 20.0396H0.681675C0.305196 20.0396 0 19.7337 0 19.3564ZM32.7204 19.3564C32.7204 18.9791 33.0256 18.6733 33.4021 18.6733H38.401C38.7775 18.6733 39.0827 18.9791 39.0827 19.3564C39.0827 19.7337 38.7775 20.0396 38.401 20.0396H33.4021C33.0256 20.0396 32.7204 19.7337 32.7204 19.3564ZM31.0047 25.8285C31.2028 25.5077 31.623 25.4086 31.9431 25.6072L36.7148 28.5676C37.0349 28.7662 37.1338 29.1873 36.9356 29.5081C36.7374 29.8289 36.3173 29.928 35.9972 29.7294L31.2255 26.769C30.9054 26.5704 30.8065 26.1493 31.0047 25.8285ZM8.06101 25.8023C8.27361 26.1137 8.19406 26.5389 7.88335 26.7519L3.56608 29.7123C3.25537 29.9254 2.83115 29.8457 2.61856 29.5343C2.40597 29.2229 2.48551 28.7977 2.79622 28.5847L7.11349 25.6243C7.4242 25.4112 7.84842 25.491 8.06101 25.8023Z" fill="#B8DFF0"/>
<path fill-rule="evenodd" clip-rule="evenodd" d="M11.5879 35.9802C11.5879 34.974 12.4017 34.1584 13.4057 34.1584H25.6758C26.6798 34.1584 27.4936 34.974 27.4936 35.9802C27.4936 36.9863 26.6798 37.802 25.6758 37.802H13.4057C12.4017 37.802 11.5879 36.9863 11.5879 35.9802ZM13.4057 35.5247C13.1547 35.5247 12.9512 35.7286 12.9512 35.9802C12.9512 36.2317 13.1547 36.4356 13.4057 36.4356H25.6758C25.9268 36.4356 26.1303 36.2317 26.1303 35.9802C26.1303 35.7286 25.9268 35.5247 25.6758 35.5247H13.4057Z" fill="#B8DFF0"/>
<path fill-rule="evenodd" clip-rule="evenodd" d="M11.5879 40.0792C11.5879 39.073 12.4017 38.2574 13.4057 38.2574H25.6758C26.6798 38.2574 27.4936 39.073 27.4936 40.0792C27.4936 41.0853 26.6798 41.9009 25.6758 41.9009H13.4057C12.4017 41.9009 11.5879 41.0853 11.5879 40.0792ZM13.4057 39.6237C13.1547 39.6237 12.9512 39.8276 12.9512 40.0792C12.9512 40.3307 13.1547 40.5346 13.4057 40.5346H25.6758C25.9268 40.5346 26.1303 40.3307 26.1303 40.0792C26.1303 39.8276 25.9268 39.6237 25.6758 39.6237H13.4057Z" fill="#B8DFF0"/>
<path fill-rule="evenodd" clip-rule="evenodd" d="M15.747 41.9009C16.0628 43.4601 17.4382 44.6336 19.0872 44.6336H19.9961C21.645 44.6336 23.0204 43.4601 23.3362 41.9009H15.747ZM24.0861 41.2178V40.5346H14.9971V41.2178H14.3154C14.3154 43.8589 16.4518 46 19.0872 46H19.9961C22.6314 46 24.7678 43.8589 24.7678 41.2178H24.0861Z" fill="#B8DFF0"/>
</svg>
