<svg width="587" height="510" viewBox="0 0 587 510" fill="none" xmlns="http://www.w3.org/2000/svg">
<path fill-rule="evenodd" clip-rule="evenodd" d="M177.525 146.471C205.631 122.465 242.992 109.21 290.088 109.21C336.948 109.21 375.04 122.327 404.234 145.979C433.355 169.571 452.841 203.008 463.717 242.363C479.386 299.058 461.364 357.554 431.546 405.501C426.856 413.042 422.519 419.874 418.871 425.556C412.817 434.986 409.537 445.858 409.537 456.927C409.537 465.973 406.71 474.792 401.453 482.153L401.081 482.673C392.56 494.602 378.802 501.682 364.142 501.682H222.207C208.15 501.682 194.794 495.54 185.646 484.866L184.313 483.311C177.692 475.587 174.053 465.75 174.053 455.577C174.053 445.278 171.132 435.143 165.709 426.239C162.108 420.327 157.749 413.09 153.022 405.068C124.771 357.121 108.08 299.781 121.88 243.75C131.623 204.193 149.526 170.387 177.525 146.471ZM190.825 162.041C166.925 182.455 150.783 212.024 141.763 248.647C129.691 297.66 143.996 349.413 170.664 394.673C175.332 402.595 179.638 409.745 183.197 415.587C190.509 427.591 194.53 441.394 194.53 455.577C194.53 460.862 196.421 465.972 199.86 469.985L201.193 471.54C206.451 477.675 214.127 481.205 222.207 481.205H364.142C372.189 481.205 379.741 477.319 384.418 470.771L384.79 470.251C387.567 466.363 389.06 461.705 389.06 456.927C389.06 441.799 393.541 427.107 401.64 414.493C405.243 408.88 409.528 402.132 414.157 394.687C442.313 349.415 457.555 296.933 443.98 247.818C433.974 211.611 416.448 182.227 391.344 161.889C366.313 141.61 332.966 129.687 290.088 129.687C247.01 129.687 214.619 141.717 190.825 162.041Z" fill="#E3EAF2"/>
<path fill-rule="evenodd" clip-rule="evenodd" d="M346.448 293.535C332.378 294.19 320.803 303.546 320.803 319.142V484.617C320.803 490.272 316.219 494.855 310.565 494.855C304.91 494.855 300.326 490.272 300.326 484.617V319.142C300.326 290.372 322.879 274.133 345.497 273.081C368.512 272.01 392.913 286.209 399.098 317.134C402.012 331.702 400.5 343.736 395.562 353.397C390.661 362.986 382.949 369.134 375.419 373.029C367.945 376.894 360.294 378.739 354.695 379.642C351.856 380.099 349.446 380.331 347.712 380.449C346.843 380.508 346.137 380.538 345.625 380.555C345.369 380.563 345.161 380.567 345.004 380.569L344.808 380.572L344.74 380.572L344.714 380.572L344.702 380.572C344.697 380.572 344.692 380.572 344.692 370.334L344.692 380.572C339.038 380.572 334.454 375.988 334.454 370.334C334.454 364.691 339.02 360.114 344.659 360.095C344.667 360.095 344.675 360.095 344.684 360.095L344.676 360.095L344.665 360.095L344.694 360.095C344.743 360.094 344.84 360.092 344.981 360.088C345.264 360.079 345.722 360.06 346.325 360.019C347.538 359.937 349.313 359.768 351.434 359.426C355.753 358.73 361.114 357.374 366.011 354.841C370.853 352.337 374.872 348.886 377.329 344.078C379.751 339.34 381.225 332.177 379.019 321.15C374.966 300.883 360.12 292.899 346.448 293.535Z" fill="#E3EAF2"/>
<path fill-rule="evenodd" clip-rule="evenodd" d="M241.831 293.535C255.901 294.19 267.476 303.546 267.476 319.142V488.03C267.476 493.684 272.06 498.268 277.715 498.268C283.369 498.268 287.953 493.684 287.953 488.03V319.142C287.953 290.372 265.4 274.133 242.783 273.081C219.768 272.01 195.366 286.209 189.181 317.134C186.267 331.702 187.779 343.736 192.717 353.397C197.618 362.986 205.331 369.134 212.861 373.029C220.334 376.894 227.985 378.739 233.585 379.642C236.423 380.099 238.833 380.331 240.567 380.449C241.437 380.508 242.142 380.538 242.654 380.555C242.91 380.563 243.119 380.567 243.275 380.569L243.471 380.572L243.539 380.572L243.566 380.572L243.577 380.572C243.582 380.572 243.587 380.572 243.587 370.334L243.587 380.572C249.241 380.572 253.825 375.988 253.825 370.334C253.825 364.691 249.26 360.114 243.621 360.095C243.612 360.095 243.604 360.095 243.596 360.095L243.603 360.095L243.615 360.095L243.586 360.095C243.536 360.094 243.439 360.092 243.298 360.088C243.015 360.079 242.558 360.06 241.954 360.019C240.742 359.937 238.966 359.768 236.845 359.426C232.526 358.73 227.166 357.374 222.268 354.841C217.427 352.337 213.408 348.886 210.95 344.078C208.529 339.34 207.055 332.177 209.26 321.15C213.313 300.883 228.159 292.899 241.831 293.535Z" fill="#E3EAF2"/>
<path fill-rule="evenodd" clip-rule="evenodd" d="M293.501 0C299.155 0 303.739 4.58389 303.739 10.2384V78.4944C303.739 84.1489 299.155 88.7328 293.501 88.7328C287.846 88.7328 283.262 84.1489 283.262 78.4944V10.2384C283.262 4.58389 287.846 0 293.501 0ZM144.737 39.097C149.532 36.1002 155.848 37.5578 158.845 42.3528L192.973 96.9576C195.97 101.753 194.513 108.069 189.717 111.066C184.922 114.063 178.606 112.605 175.609 107.81L141.481 53.2055C138.484 48.4105 139.942 42.0939 144.737 39.097ZM438.852 39.097C443.647 42.0939 445.105 48.4105 442.108 53.2055L407.98 107.81C404.983 112.605 398.666 114.063 393.871 111.066C389.076 108.069 387.618 101.753 390.615 96.9576L424.743 42.3528C427.74 37.5578 434.057 36.1002 438.852 39.097ZM555.117 142C557.741 147.009 555.807 153.196 550.799 155.82L479.13 193.361C474.121 195.984 467.933 194.051 465.31 189.042C462.686 184.033 464.619 177.845 469.628 175.222L541.297 137.681C546.306 135.057 552.494 136.991 555.117 142ZM38.9186 141.621C41.7517 136.727 48.0154 135.057 52.909 137.89L117.752 175.431C122.646 178.264 124.316 184.527 121.483 189.421C118.65 194.314 112.386 195.985 107.493 193.152L42.6494 155.611C37.7558 152.778 36.0855 146.514 38.9186 141.621ZM0 290.088C0 284.433 4.58389 279.85 10.2384 279.85H85.32C90.9745 279.85 95.5584 284.433 95.5584 290.088C95.5584 295.742 90.9745 300.326 85.32 300.326H10.2384C4.58389 300.326 0 295.742 0 290.088ZM491.443 290.088C491.443 284.433 496.027 279.85 501.681 279.85H576.763C582.418 279.85 587.001 284.433 587.001 290.088C587.001 295.742 582.418 300.326 576.763 300.326H501.681C496.027 300.326 491.443 295.742 491.443 290.088ZM465.674 387.083C468.65 382.275 474.96 380.79 479.768 383.767L551.437 428.133C556.245 431.109 557.729 437.419 554.753 442.227C551.777 447.035 545.467 448.52 540.659 445.544L468.99 401.177C464.182 398.201 462.697 391.891 465.674 387.083ZM121.072 386.69C124.265 391.357 123.071 397.729 118.404 400.922L53.5606 445.288C48.8939 448.481 42.5224 447.286 39.3294 442.62C36.1364 437.953 37.331 431.581 41.9977 428.388L106.841 384.022C111.508 380.829 117.879 382.024 121.072 386.69Z" fill="#E3EAF2"/>
</svg>
