<svg width="64" height="64" viewBox="0 0 64 64" fill="none" xmlns="http://www.w3.org/2000/svg">
<g clip-path="url(#clip0_238_120)">
<circle cx="32" cy="32" r="32" fill="#6373B5"/>
<path d="M46.8404 38.7256C46.5857 40.6614 45.635 42.4382 44.166 43.7243C42.697 45.0104 40.81 45.7177 38.8576 45.7142C27.5147 45.7142 18.2861 36.4856 18.2861 25.1428C18.2826 23.1903 18.99 21.3034 20.2761 19.8343C21.5621 18.3653 23.339 17.4146 25.2747 17.1599C25.7642 17.1002 26.2599 17.2003 26.6878 17.4454C27.1158 17.6905 27.4529 18.0674 27.649 18.5199L30.6661 25.2556V25.2728C30.8163 25.6191 30.8783 25.9973 30.8466 26.3735C30.815 26.7496 30.6906 27.1121 30.4847 27.4285C30.459 27.4671 30.4319 27.5028 30.4033 27.5385L27.429 31.0642C28.499 33.2385 30.7733 35.4928 32.9761 36.5656L36.4533 33.6071C36.4874 33.5784 36.5232 33.5516 36.5604 33.5271C36.8766 33.3162 37.2403 33.1875 37.6187 33.1526C37.9971 33.1177 38.3782 33.1776 38.7276 33.3271L38.7461 33.3356L45.4761 36.3513C45.9294 36.5467 46.3073 36.8836 46.5532 37.3116C46.7991 37.7396 46.8999 38.2356 46.8404 38.7256Z" fill="white"/>
</g>
<defs>
<clipPath id="clip0_238_120">
<rect width="64" height="64" fill="white"/>
</clipPath>
</defs>
</svg>