<svg width="156" height="28" viewBox="0 0 156 28" fill="none" xmlns="http://www.w3.org/2000/svg">
<path d="M13.6196 1.17082C13.7393 0.802295 14.2607 0.802296 14.3804 1.17082L17.0534 9.39737C17.1069 9.56218 17.2605 9.67376 17.4338 9.67376H26.0837C26.4712 9.67376 26.6323 10.1696 26.3188 10.3974L19.3209 15.4817C19.1807 15.5835 19.1221 15.7641 19.1756 15.9289L21.8486 24.1554C21.9683 24.5239 21.5465 24.8304 21.233 24.6026L14.2351 19.5183C14.0949 19.4165 13.9051 19.4165 13.7649 19.5183L6.76697 24.6026C6.45348 24.8304 6.03169 24.5239 6.15143 24.1554L8.8244 15.9289C8.87795 15.7641 8.81928 15.5835 8.67909 15.4817L1.68117 10.3974C1.36768 10.1696 1.52879 9.67376 1.91628 9.67376H10.5662C10.7395 9.67376 10.8931 9.56218 10.9466 9.39737L13.6196 1.17082Z" fill="#F4C20D"/>
<path d="M45.6196 1.17082C45.7393 0.802295 46.2607 0.802296 46.3804 1.17082L49.0534 9.39737C49.1069 9.56218 49.2605 9.67376 49.4338 9.67376H58.0837C58.4712 9.67376 58.6323 10.1696 58.3188 10.3974L51.3209 15.4817C51.1807 15.5835 51.1221 15.7641 51.1756 15.9289L53.8486 24.1554C53.9683 24.5239 53.5465 24.8304 53.233 24.6026L46.2351 19.5183C46.0949 19.4165 45.9051 19.4165 45.7649 19.5183L38.767 24.6026C38.4535 24.8304 38.0317 24.5239 38.1514 24.1554L40.8244 15.9289C40.8779 15.7641 40.8193 15.5835 40.6791 15.4817L33.6812 10.3974C33.3677 10.1696 33.5288 9.67376 33.9163 9.67376H42.5662C42.7395 9.67376 42.8931 9.56218 42.9466 9.39737L45.6196 1.17082Z" fill="#F4C20D"/>
<path d="M77.6196 1.17082C77.7393 0.802295 78.2607 0.802296 78.3804 1.17082L81.0534 9.39737C81.1069 9.56218 81.2605 9.67376 81.4338 9.67376H90.0837C90.4712 9.67376 90.6323 10.1696 90.3188 10.3974L83.3209 15.4817C83.1807 15.5835 83.1221 15.7641 83.1756 15.9289L85.8486 24.1554C85.9683 24.5239 85.5465 24.8304 85.233 24.6026L78.2351 19.5183C78.0949 19.4165 77.9051 19.4165 77.7649 19.5183L70.767 24.6026C70.4535 24.8304 70.0317 24.5239 70.1514 24.1554L72.8244 15.9289C72.8779 15.7641 72.8193 15.5835 72.6791 15.4817L65.6812 10.3974C65.3677 10.1696 65.5288 9.67376 65.9163 9.67376H74.5662C74.7395 9.67376 74.8931 9.56218 74.9466 9.39737L77.6196 1.17082Z" fill="#F4C20D"/>
<path d="M109.62 1.17082C109.739 0.802295 110.261 0.802296 110.38 1.17082L113.053 9.39737C113.107 9.56218 113.261 9.67376 113.434 9.67376H122.084C122.471 9.67376 122.632 10.1696 122.319 10.3974L115.321 15.4817C115.181 15.5835 115.122 15.7641 115.176 15.9289L117.849 24.1554C117.968 24.5239 117.547 24.8304 117.233 24.6026L110.235 19.5183C110.095 19.4165 109.905 19.4165 109.765 19.5183L102.767 24.6026C102.453 24.8304 102.032 24.5239 102.151 24.1554L104.824 15.9289C104.878 15.7641 104.819 15.5835 104.679 15.4817L97.6812 10.3974C97.3677 10.1696 97.5288 9.67376 97.9163 9.67376H106.566C106.739 9.67376 106.893 9.56218 106.947 9.39737L109.62 1.17082Z" fill="#F4C20D"/>
<path d="M141.62 1.17082C141.739 0.802295 142.261 0.802296 142.38 1.17082L145.053 9.39737C145.107 9.56218 145.261 9.67376 145.434 9.67376H154.084C154.471 9.67376 154.632 10.1696 154.319 10.3974L147.321 15.4817C147.181 15.5835 147.122 15.7641 147.176 15.9289L149.849 24.1554C149.968 24.5239 149.547 24.8304 149.233 24.6026L142.235 19.5183C142.095 19.4165 141.905 19.4165 141.765 19.5183L134.767 24.6026C134.453 24.8304 134.032 24.5239 134.151 24.1554L136.824 15.9289C136.878 15.7641 136.819 15.5835 136.679 15.4817L129.681 10.3974C129.368 10.1696 129.529 9.67376 129.916 9.67376H138.566C138.739 9.67376 138.893 9.56218 138.947 9.39737L141.62 1.17082Z" fill="#F4C20D"/>
</svg>
