<svg width="118" height="119" viewBox="0 0 118 119" fill="none" xmlns="http://www.w3.org/2000/svg">
<circle cx="59" cy="59.8242" r="59" fill="#EBECF2"/>
<path d="M47.6653 65.1931C43.225 65.1931 39.7986 63.6897 37.3862 60.6829C35.0087 57.6761 33.82 53.2358 33.82 47.362C33.82 41.4883 35.0087 37.048 37.3862 34.0411C39.7986 31.0343 43.225 29.5309 47.6653 29.5309C52.1056 29.5309 55.5145 31.0343 57.892 34.0411C60.3044 37.048 61.5106 41.4883 61.5106 47.362C61.5106 53.2358 60.3044 57.6761 57.892 60.6829C55.5145 63.6897 52.1056 65.1931 47.6653 65.1931ZM47.6653 59.3718C49.1687 59.3718 50.3924 58.9523 51.3364 58.1131C52.3154 57.2391 53.0496 55.928 53.5391 54.1798C54.0286 52.3967 54.2733 50.1241 54.2733 47.362C54.2733 44.6 54.0286 42.3448 53.5391 40.5967C53.0496 38.8136 52.3154 37.5025 51.3364 36.6634C50.3924 35.7893 49.1687 35.3523 47.6653 35.3523C46.1619 35.3523 44.9207 35.7893 43.9417 36.6634C42.9628 37.5025 42.2285 38.8136 41.7391 40.5967C41.2845 42.3448 41.0573 44.6 41.0573 47.362C41.0573 50.1241 41.2845 52.3967 41.7391 54.1798C42.2285 55.928 42.9628 57.2391 43.9417 58.1131C44.9207 58.9523 46.1619 59.3718 47.6653 59.3718ZM74.6607 64.6687V42.7469C74.6607 41.9428 74.6607 41.1211 74.6607 40.282C74.6956 39.408 74.7306 38.5164 74.7655 37.6074C73.5768 38.6912 72.2482 39.6352 70.7798 40.4394C69.3113 41.2435 67.8079 41.8029 66.2695 42.1176L65.3255 36.034C66.1297 35.9641 67.0212 35.7368 68.0002 35.3523C69.0141 34.9327 70.0281 34.4432 71.042 33.8838C72.0909 33.2894 73.0349 32.6776 73.874 32.0483C74.7481 31.384 75.4124 30.7197 75.8669 30.0554H81.7407V64.6687H74.6607Z" fill="#080C1B"/>
<path d="M37.5556 72.1452C39.0765 72.1452 40.3876 72.4599 41.4889 73.0892C42.5903 73.7011 43.5081 74.6101 44.2423 75.8163L42.4854 77.1799C41.8386 76.0611 41.1043 75.2744 40.2827 74.8199C39.4786 74.3479 38.4996 74.1119 37.3458 74.1119C36.4193 74.1119 35.6501 74.243 35.0383 74.5052C34.4439 74.7674 34.0069 75.1171 33.7272 75.5541C33.4475 75.9737 33.3076 76.4544 33.3076 76.9963C33.3076 77.6082 33.4999 78.1501 33.8845 78.6221C34.2691 79.0766 35.0383 79.435 36.1921 79.6972L39.9418 80.5363C41.6026 80.9034 42.7563 81.4629 43.4032 82.2146C44.0675 82.9488 44.3996 83.8666 44.3996 84.9679C44.3996 85.9469 44.1199 86.8209 43.5605 87.5901C43.0186 88.3418 42.2494 88.9274 41.2529 89.347C40.2565 89.7666 39.0852 89.9763 37.7392 89.9763C36.4805 89.9763 35.3704 89.8103 34.4089 89.4781C33.4649 89.1285 32.6521 88.6652 31.9703 88.0883C31.2885 87.5114 30.7291 86.8646 30.2921 86.1479L32.1276 84.6532C32.4598 85.3175 32.8881 85.9031 33.4125 86.4101C33.9369 86.9171 34.5663 87.3104 35.3005 87.5901C36.0522 87.8698 36.9088 88.0097 37.8703 88.0097C38.7618 88.0097 39.531 87.9048 40.1778 87.695C40.8421 87.4677 41.3491 87.1443 41.6987 86.7248C42.0483 86.2877 42.2232 85.7633 42.2232 85.1514C42.2232 84.592 42.0396 84.0938 41.6725 83.6568C41.3054 83.2023 40.6149 82.8614 39.6009 82.6341L35.5365 81.7163C34.4701 81.4716 33.6048 81.1394 32.9405 80.7199C32.2937 80.2829 31.8217 79.7759 31.5245 79.199C31.2448 78.6046 31.1049 77.9666 31.1049 77.2848C31.1049 76.3583 31.3584 75.5104 31.8654 74.7412C32.3898 73.9546 33.1328 73.3252 34.0943 72.8532C35.0732 72.3812 36.227 72.1452 37.5556 72.1452ZM51.496 72.8794V86.0954C51.496 86.7423 51.6796 87.223 52.0467 87.5377C52.4138 87.8523 52.8858 88.0097 53.4627 88.0097C53.9696 88.0097 54.4067 87.9223 54.7738 87.7474C55.1409 87.5726 55.473 87.3366 55.7702 87.0394L56.5044 88.7963C56.1024 89.1634 55.6216 89.4519 55.0622 89.6617C54.5203 89.8714 53.891 89.9763 53.1742 89.9763C52.5099 89.9763 51.8893 89.8627 51.3124 89.6354C50.7356 89.3907 50.2723 89.0149 49.9227 88.5079C49.5905 87.9834 49.4157 87.3017 49.3982 86.4626V73.4563L51.496 72.8794ZM56.2684 76.603V78.4123H46.776V76.603H56.2684ZM64.8679 89.9763C63.6267 89.9763 62.5166 89.7054 61.5377 89.1634C60.5762 88.6215 59.8245 87.8436 59.2826 86.8297C58.7406 85.7983 58.4697 84.5746 58.4697 83.1586C58.4697 81.7426 58.7406 80.5276 59.2826 79.5137C59.8245 78.4823 60.5675 77.6956 61.5115 77.1537C62.4555 76.6117 63.5306 76.3408 64.7368 76.3408C65.9605 76.3408 67.0006 76.603 67.8572 77.1274C68.7313 77.6519 69.3956 78.3686 69.8501 79.2777C70.3046 80.1692 70.5319 81.1744 70.5319 82.2932C70.5319 82.5904 70.5232 82.8614 70.5057 83.1061C70.4882 83.3509 70.462 83.5694 70.427 83.7617H59.8332V81.8999H69.5092L68.4341 82.1097C68.4341 80.851 68.0845 79.8808 67.3852 79.199C66.7035 78.5172 65.8032 78.1763 64.6843 78.1763C63.8277 78.1763 63.0848 78.3774 62.4555 78.7794C61.8436 79.164 61.3629 79.7322 61.0132 80.4839C60.6811 81.2181 60.515 82.1097 60.515 83.1586C60.515 84.19 60.6898 85.0815 61.0395 85.8332C61.3891 86.5849 61.8786 87.1618 62.5079 87.5639C63.1547 87.9485 63.9239 88.1408 64.8155 88.1408C65.7769 88.1408 66.5549 87.9572 67.1492 87.5901C67.7611 87.223 68.2506 86.7248 68.6177 86.0954L70.2697 87.0657C69.9375 87.66 69.5092 88.1757 68.9848 88.6128C68.4778 89.0498 67.8747 89.3907 67.1755 89.6354C66.4937 89.8627 65.7245 89.9763 64.8679 89.9763ZM74.5216 95.2208V76.603H76.3571L76.5407 79.8021L76.2522 79.435C76.4795 78.8231 76.8204 78.29 77.2749 77.8354C77.7294 77.3634 78.2801 76.9963 78.9269 76.7341C79.5737 76.4719 80.273 76.3408 81.0247 76.3408C82.091 76.3408 83.07 76.6117 83.9616 77.1537C84.8706 77.6956 85.5961 78.4735 86.138 79.4874C86.6799 80.5014 86.9509 81.7251 86.9509 83.1586C86.9509 84.5746 86.6712 85.7983 86.1118 86.8297C85.5699 87.8436 84.8444 88.6215 83.9353 89.1634C83.0263 89.7054 82.0299 89.9763 80.946 89.9763C79.8622 89.9763 78.9094 89.7141 78.0878 89.1897C77.2836 88.6477 76.7068 87.966 76.3571 87.1443L76.6193 86.751V95.2208H74.5216ZM80.7362 88.1408C82.0299 88.1408 83.035 87.6863 83.7518 86.7772C84.486 85.8682 84.8531 84.662 84.8531 83.1586C84.8531 81.6551 84.4948 80.4489 83.778 79.5399C83.0788 78.6309 82.091 78.1763 80.8149 78.1763C79.9758 78.1763 79.2416 78.3861 78.6122 78.8057C77.9829 79.2077 77.4934 79.7846 77.1438 80.5363C76.7942 81.2706 76.6193 82.1446 76.6193 83.1586C76.6193 84.155 76.7854 85.0291 77.1176 85.7808C77.4672 86.5325 77.9479 87.1181 78.5598 87.5377C79.1891 87.9397 79.9146 88.1408 80.7362 88.1408Z" fill="#080C1B"/>
</svg>
