<svg width="32" height="32" viewBox="0 0 32 32" fill="none" xmlns="http://www.w3.org/2000/svg">
<g clip-path="url(#clip0_83_670)">
<path d="M11.1468 1.05323C7.94946 2.1624 5.19211 4.26764 3.27973 7.05973C1.36735 9.85182 0.400732 13.1836 0.52186 16.5656C0.642987 19.9477 1.84547 23.2018 3.9527 25.8499C6.05992 28.498 8.9608 30.4006 12.2293 31.2782C14.8791 31.962 17.6553 31.992 20.3193 31.3657C22.7325 30.8237 24.9637 29.6641 26.7943 28.0007C28.6995 26.2166 30.0823 23.9469 30.7943 21.4357C31.5678 18.7049 31.7055 15.8331 31.1968 13.0407H16.3168V19.2132H24.9343C24.762 20.1977 24.393 21.1373 23.8491 21.9758C23.3053 22.8143 22.5979 23.5345 21.7693 24.0932C20.7171 24.7896 19.5308 25.2579 18.2868 25.4682C17.0391 25.7003 15.7594 25.7003 14.5118 25.4682C13.2471 25.2071 12.0509 24.6851 10.9993 23.9357C9.30962 22.7397 8.04094 21.0405 7.37425 19.0807C6.69648 17.0842 6.69648 14.9198 7.37425 12.9232C7.84882 11.5238 8.63334 10.2496 9.66925 9.19573C10.8547 7.9676 12.3556 7.08972 14.0071 6.65842C15.6587 6.22712 17.3972 6.25905 19.0318 6.75073C20.3088 7.14254 21.4765 7.82742 22.4418 8.75073C23.4134 7.78406 24.3834 6.81489 25.3518 5.84323C25.8518 5.32073 26.3968 4.82323 26.8893 4.28823C25.4156 2.91702 23.6859 1.84999 21.7993 1.14823C18.3635 -0.0992977 14.6042 -0.132824 11.1468 1.05323Z" fill="white"/>
<path d="M11.1479 1.05102C14.6051 -0.135833 18.3644 -0.103189 21.8004 1.14352C23.6874 1.85005 25.4163 2.92222 26.8879 4.29852C26.3879 4.83352 25.8604 5.33352 25.3504 5.85352C24.3804 6.82186 23.4113 7.78686 22.4429 8.74852C21.4777 7.82522 20.3099 7.14033 19.0329 6.74852C17.3989 6.25513 15.6605 6.22134 14.0085 6.65088C12.3565 7.08042 10.8547 7.95668 9.66793 9.18353C8.63201 10.2374 7.8475 11.5116 7.37293 12.911L2.19043 8.89852C4.04545 5.21993 7.2573 2.40608 11.1479 1.05102Z" fill="#E33629"/>
<path d="M0.814876 12.8744C1.09322 11.4938 1.55569 10.1569 2.18988 8.89941L7.37238 12.9219C6.6946 14.9185 6.6946 17.0829 7.37238 19.0794C5.64571 20.4127 3.91821 21.7527 2.18988 23.0994C0.602752 19.9402 0.118707 16.3407 0.814876 12.8744Z" fill="#F8BD00"/>
<path d="M16.3175 13.0381H31.1975C31.7062 15.8304 31.5686 18.7022 30.795 21.4331C30.0831 23.9443 28.7002 26.214 26.795 27.9981C25.1225 26.6931 23.4425 25.3981 21.77 24.0931C22.5992 23.5338 23.3069 22.8128 23.8508 21.9734C24.3946 21.134 24.7634 20.1934 24.935 19.2081H16.3175C16.315 17.1531 16.3175 15.0956 16.3175 13.0381Z" fill="#587DBD"/>
<path d="M2.1875 23.1001C3.91583 21.7667 5.64333 20.4267 7.37 19.0801C8.03802 21.0406 9.30851 22.7398 11 23.9351C12.0549 24.681 13.2537 25.1987 14.52 25.4551C15.7676 25.6871 17.0474 25.6871 18.295 25.4551C19.5391 25.2448 20.7253 24.7764 21.7775 24.0801C23.45 25.3851 25.13 26.6801 26.8025 27.9851C24.9722 29.6494 22.741 30.8098 20.3275 31.3526C17.6635 31.9788 14.8873 31.9488 12.2375 31.2651C10.1418 30.7055 8.18419 29.7191 6.4875 28.3676C4.69182 26.9416 3.22509 25.1449 2.1875 23.1001Z" fill="#319F43"/>
</g>
<defs>
<clipPath id="clip0_83_670">
<rect width="32" height="32" fill="white"/>
</clipPath>
</defs>
</svg>