<svg width="107" height="27" viewBox="0 0 107 27" fill="none" xmlns="http://www.w3.org/2000/svg">
<g clip-path="url(#clip0_82_277)">
<path d="M28.3258 10.002H39.0458V11.9909H34.8307V23.1719H32.5128V11.9909H28.3164V10.002H28.3258ZM38.5878 13.636H40.5692V15.4763H40.6066C40.672 15.216 40.7935 14.9651 40.9711 14.7234C41.1487 14.4818 41.3636 14.2494 41.616 14.0543C41.8683 13.8498 42.1487 13.6918 42.4571 13.5617C42.7655 13.4408 43.0833 13.3758 43.4011 13.3758C43.6441 13.3758 43.8217 13.3851 43.9151 13.3944C44.0086 13.4037 44.102 13.4222 44.2048 13.4315V15.4577C44.0553 15.4298 43.9058 15.4112 43.7469 15.3926C43.588 15.374 43.4385 15.3648 43.2889 15.3648C42.9338 15.3648 42.5973 15.4391 42.2795 15.5785C41.9618 15.7179 41.6907 15.9317 41.4571 16.2012C41.2234 16.4801 41.0365 16.8147 40.8963 17.2236C40.7561 17.6326 40.6907 18.0973 40.6907 18.627V23.1626H38.5785V13.636L38.5878 13.636ZM53.9155 23.1719H51.8406V21.8429H51.8033C51.5416 22.3262 51.1584 22.7072 50.6443 22.9954C50.1303 23.2835 49.6069 23.4322 49.0742 23.4322C47.8125 23.4322 46.8965 23.1255 46.3358 22.5028C45.775 21.88 45.4946 20.9413 45.4946 19.6866V13.636H47.6068V19.4821C47.6068 20.3186 47.7657 20.9134 48.0928 21.2573C48.4106 21.6012 48.8686 21.7778 49.448 21.7778C49.8966 21.7778 50.2611 21.7127 50.5602 21.5733C50.8593 21.4339 51.1023 21.2573 51.2799 21.025C51.4668 20.8019 51.5976 20.5231 51.6818 20.2071C51.7659 19.8911 51.8033 19.5472 51.8033 19.1754V13.6453H53.9155V23.1719ZM57.5137 20.1141C57.5792 20.7275 57.8128 21.1551 58.2147 21.406C58.6259 21.6477 59.1119 21.7778 59.6821 21.7778C59.8783 21.7778 60.1026 21.7592 60.355 21.7313C60.6073 21.7034 60.8503 21.6384 61.0653 21.5547C61.2896 21.4711 61.4672 21.341 61.6167 21.1737C61.7569 21.0064 61.8223 20.7926 61.813 20.5231C61.8036 20.2535 61.7008 20.0305 61.5139 19.8632C61.327 19.6866 61.0933 19.5565 60.8036 19.4449C60.5139 19.3427 60.1867 19.2498 59.8129 19.1754C59.4391 19.1011 59.0652 19.0174 58.682 18.9338C58.2895 18.8501 57.9063 18.7386 57.5418 18.6177C57.1773 18.4969 56.8502 18.3296 56.5604 18.1159C56.2707 17.9114 56.0371 17.6418 55.8688 17.3165C55.6913 16.9912 55.6071 16.5916 55.6071 16.1083C55.6071 15.5878 55.738 15.1603 55.9903 14.8071C56.2427 14.4539 56.5698 14.1751 56.953 13.9613C57.3455 13.7475 57.7754 13.5988 58.2521 13.5059C58.7287 13.4222 59.1867 13.3758 59.6166 13.3758C60.112 13.3758 60.5886 13.4315 61.0372 13.5338C61.4859 13.636 61.8971 13.8033 62.2616 14.045C62.6261 14.2773 62.9252 14.584 63.1682 14.9558C63.4112 15.3276 63.5607 15.783 63.6261 16.3128H61.4204C61.3176 15.8109 61.0933 15.467 60.7288 15.2997C60.3643 15.1231 59.9437 15.0395 59.4764 15.0395C59.3269 15.0395 59.1493 15.0487 58.9437 15.0766C58.7381 15.1045 58.5512 15.151 58.3642 15.216C58.1867 15.2811 58.0371 15.3833 57.9063 15.5135C57.7848 15.6436 57.7194 15.8109 57.7194 16.0246C57.7194 16.2849 57.8128 16.4894 57.9904 16.6474C58.168 16.8054 58.4016 16.9355 58.6914 17.047C58.9811 17.1493 59.3082 17.2422 59.6821 17.3165C60.0559 17.3909 60.4391 17.4746 60.8316 17.5582C61.2148 17.6418 61.5887 17.7534 61.9625 17.8742C62.3364 17.995 62.6635 18.1623 62.9532 18.3761C63.2429 18.5899 63.4766 18.8501 63.6542 19.1661C63.8317 19.4821 63.9252 19.8818 63.9252 20.3465C63.9252 20.9134 63.7944 21.3874 63.5327 21.7871C63.271 22.1775 62.9345 22.5028 62.5233 22.7444C62.112 22.9861 61.6447 23.1719 61.1401 23.2835C60.6354 23.395 60.1307 23.4508 59.6353 23.4508C59.0278 23.4508 58.4671 23.3857 57.953 23.2463C57.439 23.1069 56.9904 22.9024 56.6165 22.6329C56.2427 22.354 55.9436 22.0102 55.7286 21.6012C55.5137 21.1923 55.4015 20.6997 55.3828 20.1327H57.5137V20.1141ZM64.486 13.636H66.0842V10.7734H68.1964V13.636H70.103V15.2067H68.1964V20.3C68.1964 20.5231 68.2057 20.709 68.2244 20.8763C68.2431 21.0343 68.2898 21.1737 68.3553 21.2852C68.4207 21.3967 68.5235 21.4804 68.6637 21.5361C68.8039 21.5919 68.9815 21.6198 69.2245 21.6198C69.374 21.6198 69.5235 21.6198 69.6731 21.6105C69.8226 21.6012 69.9722 21.5826 70.1217 21.5454V23.1719C69.888 23.1998 69.6544 23.2184 69.4394 23.2463C69.2151 23.2742 68.9908 23.2835 68.7572 23.2835C68.1964 23.2835 67.7478 23.2277 67.4113 23.1255C67.0748 23.0232 66.8038 22.8652 66.6169 22.6608C66.4206 22.4563 66.2991 22.2053 66.2243 21.8986C66.1589 21.5919 66.1122 21.2387 66.1028 20.8484V15.2253H64.5047V13.636H64.486ZM71.5984 13.636H73.5985V14.9279H73.6358C73.9349 14.3703 74.3461 13.9799 74.8789 13.7383C75.4116 13.4966 75.9817 13.3758 76.6079 13.3758C77.3649 13.3758 78.0192 13.5059 78.5799 13.7754C79.1407 14.0357 79.608 14.3981 79.9819 14.8629C80.3557 15.3276 80.6268 15.8666 80.8137 16.4801C81.0006 17.0935 81.0941 17.7534 81.0941 18.4504C81.0941 19.0918 81.0099 19.7145 80.8417 20.3093C80.6735 20.9134 80.4211 21.4432 80.0847 21.9079C79.7482 22.3726 79.3183 22.7351 78.7949 23.0139C78.2715 23.2928 77.664 23.4322 76.9537 23.4322C76.6453 23.4322 76.3369 23.4043 76.0285 23.3485C75.72 23.2928 75.421 23.1998 75.1406 23.079C74.8602 22.9582 74.5891 22.8002 74.3555 22.605C74.1125 22.4098 73.9162 22.1867 73.748 21.9358H73.7106V26.6945H71.5984V13.636ZM78.9818 18.4133C78.9818 17.9857 78.9258 17.5675 78.8136 17.1585C78.7015 16.7496 78.5332 16.3964 78.3089 16.0804C78.0846 15.7644 77.8042 15.5135 77.4771 15.3276C77.1406 15.1417 76.7575 15.0395 76.3275 15.0395C75.4396 15.0395 74.7667 15.3462 74.3181 15.9596C73.8695 16.573 73.6452 17.3909 73.6452 18.4133C73.6452 18.8966 73.7013 19.3427 73.8228 19.7516C73.9443 20.1606 74.1125 20.5138 74.3555 20.8112C74.5891 21.1086 74.8695 21.341 75.1966 21.5083C75.5238 21.6849 75.907 21.7685 76.3369 21.7685C76.8229 21.7685 77.2248 21.6663 77.5612 21.4711C77.8977 21.2759 78.1687 21.0157 78.3837 20.709C78.5986 20.393 78.7575 20.0398 78.851 19.6401C78.9351 19.2405 78.9818 18.8315 78.9818 18.4133ZM82.7109 10.002H84.8232V11.9909H82.7109V10.002ZM82.7109 13.636H84.8232V23.1719H82.7109V13.636ZM86.7111 10.002H88.8233V23.1719H86.7111V10.002ZM95.3002 23.4322C94.5338 23.4322 93.8515 23.3021 93.2534 23.0511C92.6552 22.8002 92.1506 22.447 91.73 22.0102C91.3187 21.564 91.001 21.0343 90.786 20.4208C90.571 19.8074 90.4589 19.1289 90.4589 18.3947C90.4589 17.6697 90.571 17.0005 90.786 16.3871C91.001 15.7737 91.3187 15.2439 91.73 14.7978C92.1412 14.3517 92.6552 14.0078 93.2534 13.7568C93.8515 13.5059 94.5338 13.3758 95.3002 13.3758C96.0666 13.3758 96.7488 13.5059 97.347 13.7568C97.9452 14.0078 98.4498 14.361 98.8704 14.7978C99.2817 15.2439 99.5994 15.7737 99.8144 16.3871C100.029 17.0005 100.141 17.6697 100.141 18.3947C100.141 19.1289 100.029 19.8074 99.8144 20.4208C99.5994 21.0343 99.2817 21.564 98.8704 22.0102C98.4592 22.4563 97.9452 22.8002 97.347 23.0511C96.7488 23.3021 96.0666 23.4322 95.3002 23.4322ZM95.3002 21.7685C95.7675 21.7685 96.1787 21.6663 96.5245 21.4711C96.8703 21.2759 97.1507 21.0157 97.375 20.6997C97.5993 20.3837 97.7582 20.0212 97.8704 19.6215C97.9732 19.2219 98.0293 18.8129 98.0293 18.3947C98.0293 17.9857 97.9732 17.5861 97.8704 17.1771C97.7676 16.7682 97.5993 16.415 97.375 16.099C97.1507 15.783 96.8703 15.532 96.5245 15.3369C96.1787 15.1417 95.7675 15.0395 95.3002 15.0395C94.8329 15.0395 94.4217 15.1417 94.0759 15.3369C93.73 15.532 93.4497 15.7923 93.2253 16.099C93.001 16.415 92.8422 16.7682 92.73 17.1771C92.6272 17.5861 92.5711 17.9857 92.5711 18.3947C92.5711 18.8129 92.6272 19.2219 92.73 19.6215C92.8328 20.0212 93.001 20.3837 93.2253 20.6997C93.4497 21.0157 93.73 21.2759 94.0759 21.4711C94.4217 21.6756 94.8329 21.7685 95.3002 21.7685ZM100.758 13.636H102.357V10.7734H104.469V13.636H106.375V15.2067H104.469V20.3C104.469 20.5231 104.478 20.709 104.497 20.8763C104.515 21.0343 104.562 21.1737 104.628 21.2852C104.693 21.3967 104.796 21.4804 104.936 21.5361C105.076 21.5919 105.254 21.6198 105.497 21.6198C105.646 21.6198 105.796 21.6198 105.945 21.6105C106.095 21.6012 106.245 21.5826 106.394 21.5454V23.1719C106.16 23.1998 105.927 23.2184 105.712 23.2463C105.487 23.2742 105.263 23.2835 105.03 23.2835C104.469 23.2835 104.02 23.2277 103.684 23.1255C103.347 23.0232 103.076 22.8652 102.889 22.6608C102.693 22.4563 102.571 22.2053 102.497 21.8986C102.431 21.5919 102.385 21.2387 102.375 20.8484V15.2253H100.777V13.636L100.758 13.636Z" fill="#191919"/>
<path d="M25.858 10.002H16.1754L13.1847 0.837891L10.1846 10.002L0.501953 9.99275L8.34337 15.6623L5.34325 24.8171L13.1847 19.1569L21.0167 24.8171L18.026 15.6623L25.858 10.002Z" fill="#00B67A"/>
<path d="M18.6998 17.7346L18.0268 15.6621L13.1855 19.1565L18.6998 17.7346Z" fill="#005128"/>
</g>
<defs>
<clipPath id="clip0_82_277">
<rect width="106" height="26.08" fill="white" transform="translate(0.5 0.689453)"/>
</clipPath>
</defs>
</svg>
