<svg width="190" height="49" viewBox="0 0 190 49" fill="none" xmlns="http://www.w3.org/2000/svg">
<g clip-path="url(#clip0_82_739)">
<path d="M49.8732 18H69.0883V21.6029H61.5329V41.8564H57.3783V21.6029H49.8564V18H49.8732ZM68.2675 24.5828H71.819V27.9163H71.886C72.0033 27.4449 72.2211 26.9903 72.5394 26.5526C72.8577 26.1149 73.243 25.694 73.6953 25.3404C74.1476 24.97 74.6502 24.6838 75.203 24.4481C75.7558 24.2293 76.3254 24.1114 76.895 24.1114C77.3306 24.1114 77.6489 24.1282 77.8164 24.1451C77.9839 24.1619 78.1514 24.1956 78.3357 24.2124V27.8826C78.0677 27.8321 77.7996 27.7985 77.5148 27.7648C77.2301 27.7311 76.962 27.7143 76.694 27.7143C76.0574 27.7143 75.4543 27.849 74.8847 28.1015C74.3151 28.354 73.8293 28.7413 73.4105 29.2295C72.9917 29.7346 72.6566 30.3407 72.4053 31.0815C72.154 31.8222 72.0368 32.664 72.0368 33.6237V41.8396H68.2507V24.5828L68.2675 24.5828ZM95.7416 41.8564H92.0225V39.4489H91.9555C91.4864 40.3243 90.7996 41.0146 89.8782 41.5365C88.9568 42.0584 88.0187 42.3278 87.0638 42.3278C84.8022 42.3278 83.1604 41.7722 82.1553 40.6442C81.1501 39.5162 80.6476 37.8158 80.6476 35.5429V24.5828H84.4336V35.1726C84.4336 36.6878 84.7184 37.7653 85.3048 38.3882C85.8744 39.0111 86.6952 39.331 87.7339 39.331C88.538 39.331 89.1914 39.2132 89.7274 38.9606C90.2635 38.7081 90.6991 38.3882 91.0174 37.9673C91.3524 37.5633 91.587 37.0582 91.7377 36.4858C91.8885 35.9133 91.9555 35.2904 91.9555 34.617V24.5997H95.7416V41.8564ZM102.191 36.3174C102.309 37.4286 102.727 38.203 103.448 38.6576C104.185 39.0953 105.056 39.331 106.078 39.331C106.43 39.331 106.832 39.2973 107.284 39.2468C107.736 39.1963 108.172 39.0785 108.557 38.927C108.959 38.7754 109.278 38.5397 109.546 38.2367C109.797 37.9336 109.914 37.5464 109.897 37.0582C109.881 36.5699 109.696 36.1659 109.361 35.8628C109.026 35.5429 108.608 35.3072 108.088 35.1052C107.569 34.92 106.983 34.7517 106.312 34.617C105.642 34.4823 104.972 34.3308 104.285 34.1792C103.582 34.0277 102.895 33.8257 102.242 33.6068C101.588 33.388 101.002 33.0849 100.483 32.6977C99.9632 32.3273 99.5444 31.8391 99.2429 31.2498C98.9246 30.6606 98.7738 29.9366 98.7738 29.0611C98.7738 28.1183 99.0083 27.3439 99.4607 26.7041C99.913 26.0644 100.499 25.5593 101.186 25.1721C101.89 24.7848 102.66 24.5155 103.515 24.3471C104.369 24.1956 105.19 24.1114 105.961 24.1114C106.849 24.1114 107.703 24.2124 108.507 24.3976C109.311 24.5828 110.048 24.8859 110.702 25.3236C111.355 25.7445 111.891 26.3001 112.327 26.9735C112.762 27.6469 113.03 28.4719 113.147 29.4315H109.194C109.01 28.5224 108.608 27.8995 107.954 27.5964C107.301 27.2765 106.547 27.125 105.709 27.125C105.441 27.125 105.123 27.1419 104.754 27.1924C104.386 27.2429 104.051 27.3271 103.716 27.4449C103.397 27.5628 103.129 27.748 102.895 27.9837C102.677 28.2194 102.56 28.5224 102.56 28.9096C102.56 29.381 102.727 29.7514 103.046 30.0376C103.364 30.3238 103.783 30.5595 104.302 30.7616C104.821 30.9468 105.408 31.1151 106.078 31.2498C106.748 31.3845 107.435 31.536 108.138 31.6875C108.825 31.8391 109.495 32.0411 110.166 32.26C110.836 32.4788 111.422 32.7819 111.941 33.1691C112.461 33.5563 112.879 34.0277 113.198 34.6001C113.516 35.1726 113.684 35.8965 113.684 36.7383C113.684 37.7653 113.449 38.6239 112.98 39.3478C112.511 40.055 111.908 40.6442 111.171 41.0819C110.434 41.5197 109.596 41.8564 108.691 42.0584C107.787 42.2605 106.882 42.3615 105.994 42.3615C104.905 42.3615 103.9 42.2436 102.979 41.9911C102.057 41.7385 101.253 41.3682 100.583 40.8799C99.913 40.3748 99.3769 39.7519 98.9916 39.0111C98.6063 38.2704 98.4052 37.3781 98.3717 36.3511H102.191V36.3174ZM114.689 24.5828H117.553V19.3974H121.339V24.5828H124.757V27.4281H121.339V36.6541C121.339 37.0582 121.356 37.3949 121.39 37.6979C121.423 37.9841 121.507 38.2367 121.624 38.4387C121.741 38.6407 121.926 38.7923 122.177 38.8933C122.428 38.9943 122.747 39.0448 123.182 39.0448C123.45 39.0448 123.718 39.0448 123.986 39.028C124.254 39.0111 124.522 38.9775 124.79 38.9101V41.8564C124.372 41.9069 123.953 41.9406 123.568 41.9911C123.165 42.0416 122.763 42.0584 122.345 42.0584C121.339 42.0584 120.535 41.9574 119.932 41.7722C119.329 41.587 118.843 41.3008 118.508 40.9304C118.156 40.56 117.939 40.1055 117.805 39.5499C117.687 38.9943 117.604 38.3545 117.587 37.6474V27.4617H114.722V24.5828H114.689ZM127.437 24.5828H131.022V26.923H131.089C131.625 25.9128 132.363 25.2057 133.317 24.768C134.272 24.3303 135.294 24.1114 136.417 24.1114C137.774 24.1114 138.946 24.3471 139.951 24.8354C140.957 25.3068 141.794 25.9634 142.464 26.8051C143.134 27.6469 143.62 28.6234 143.955 29.7346C144.29 30.8457 144.458 32.0411 144.458 33.3038C144.458 34.4655 144.307 35.5935 144.006 36.6709C143.704 37.7653 143.252 38.7249 142.649 39.5667C142.046 40.4085 141.275 41.0651 140.337 41.5702C139.399 42.0753 138.31 42.3278 137.037 42.3278C136.484 42.3278 135.931 42.2773 135.378 42.1763C134.825 42.0753 134.289 41.9069 133.787 41.688C133.284 41.4692 132.798 41.183 132.379 40.8294C131.944 40.4759 131.592 40.0718 131.29 39.6172H131.223V48.2372H127.437V24.5828ZM140.672 33.2364C140.672 32.462 140.571 31.7044 140.37 30.9636C140.169 30.2228 139.868 29.5831 139.466 29.0106C139.064 28.4382 138.561 27.9837 137.975 27.6469C137.372 27.3102 136.685 27.125 135.914 27.125C134.323 27.125 133.116 27.6806 132.312 28.7918C131.508 29.9029 131.106 31.3845 131.106 33.2364C131.106 34.1119 131.207 34.92 131.424 35.6608C131.642 36.4016 131.944 37.0413 132.379 37.5801C132.798 38.1188 133.301 38.5397 133.887 38.8428C134.473 39.1627 135.16 39.3142 135.931 39.3142C136.802 39.3142 137.522 39.129 138.125 38.7754C138.729 38.4219 139.214 37.9505 139.6 37.3949C139.985 36.8225 140.27 36.1827 140.437 35.4588C140.588 34.7348 140.672 33.9941 140.672 33.2364ZM147.356 18H151.142V21.6029H147.356V18ZM147.356 24.5828H151.142V41.8564H147.356V24.5828ZM154.526 18H158.312V41.8564H154.526V18ZM169.922 42.3278C168.548 42.3278 167.325 42.0921 166.253 41.6375C165.181 41.183 164.276 40.5432 163.522 39.7519C162.785 38.9438 162.216 37.9841 161.83 36.873C161.445 35.7618 161.244 34.5328 161.244 33.2028C161.244 31.8896 161.445 30.6774 161.83 29.5662C162.216 28.4551 162.785 27.4954 163.522 26.6873C164.259 25.8792 165.181 25.2562 166.253 24.8017C167.325 24.3471 168.548 24.1114 169.922 24.1114C171.295 24.1114 172.518 24.3471 173.591 24.8017C174.663 25.2562 175.567 25.896 176.321 26.6873C177.058 27.4954 177.628 28.4551 178.013 29.5662C178.398 30.6774 178.6 31.8896 178.6 33.2028C178.6 34.5328 178.398 35.7618 178.013 36.873C177.628 37.9841 177.058 38.9438 176.321 39.7519C175.584 40.56 174.663 41.183 173.591 41.6375C172.518 42.0921 171.295 42.3278 169.922 42.3278ZM169.922 39.3142C170.759 39.3142 171.496 39.129 172.116 38.7754C172.736 38.4219 173.239 37.9505 173.641 37.3781C174.043 36.8056 174.328 36.149 174.529 35.4251C174.713 34.7012 174.813 33.9604 174.813 33.2028C174.813 32.462 174.713 31.738 174.529 30.9973C174.344 30.2565 174.043 29.6167 173.641 29.0443C173.239 28.4719 172.736 28.0173 172.116 27.6638C171.496 27.3102 170.759 27.125 169.922 27.125C169.084 27.125 168.347 27.3102 167.727 27.6638C167.107 28.0173 166.605 28.4887 166.203 29.0443C165.801 29.6167 165.516 30.2565 165.315 30.9973C165.131 31.738 165.03 32.462 165.03 33.2028C165.03 33.9604 165.131 34.7012 165.315 35.4251C165.499 36.149 165.801 36.8056 166.203 37.3781C166.605 37.9505 167.107 38.4219 167.727 38.7754C168.347 39.1458 169.084 39.3142 169.922 39.3142ZM179.705 24.5828H182.57V19.3974H186.356V24.5828H189.773V27.4281H186.356V36.6541C186.356 37.0582 186.373 37.3949 186.406 37.6979C186.44 37.9841 186.523 38.2367 186.641 38.4387C186.758 38.6407 186.942 38.7923 187.194 38.8933C187.445 38.9943 187.763 39.0448 188.199 39.0448C188.467 39.0448 188.735 39.0448 189.003 39.028C189.271 39.0111 189.539 38.9775 189.807 38.9101V41.8564C189.388 41.9069 188.969 41.9406 188.584 41.9911C188.182 42.0416 187.78 42.0584 187.361 42.0584C186.356 42.0584 185.552 41.9574 184.949 41.7722C184.346 41.587 183.86 41.3008 183.525 40.9304C183.173 40.56 182.955 40.1055 182.821 39.5499C182.704 38.9943 182.62 38.3545 182.603 37.6474V27.4617H179.739V24.5828L179.705 24.5828Z" fill="white"/>
<path d="M45.4506 17.1561H28.0949L22.7341 0.273346L17.3566 17.156L0.000976562 17.1389L14.0563 27.5836L8.67878 44.4492L22.7341 34.0216L36.7728 44.4492L32.7622 31.0593L23.7073 33.2996L22.7341 34.0216L31.4119 27.5836L45.4506 17.1561Z" fill="#00B67A"/>
</g>
<defs>
<clipPath id="clip0_82_739">
<rect width="190" height="48.046" fill="white"/>
</clipPath>
</defs>
</svg>
